<svg xmlns="http://www.w3.org/2000/svg"><defs><font id="mattermosticons" horiz-adv-x="1000"><font-face font-family="mattermosticons" font-weight="400" ascent="850" descent="-150"/><glyph glyph-name="mattermost" unicode="" d="M794 755l5-106c86-96 120-230 77-357C812 103 602 4 405 71c-196 66-303 273-239 462 43 127 152 213 279 236l68 81C300 856 99 723 27 510-62 249 78-35 340-124c261-88 545 52 634 314 71 212-8 439-180 565zM671 441l-3 149-3 85-2 74s0 36-1 44c0 2-1 3-1 5h-1v1c-1 2-4 4-6 5-3 1-6 0-9-1h-1l-3-3c-6-6-28-34-28-34l-46-58-54-66-93-115s-43-54-34-119c10-66 58-98 96-110 38-13 96-17 144 29 47 46 45 114 45 114z" horiz-adv-x="1000"/><glyph glyph-name="archive-outline" unicode="" d="M900-100H100v550h100V0h600v450h100v-550M50 800h900V500H50v300m325-400h250c15 0 25-10 25-25v-75H350v75c0 15 10 25 25 25M150 700V600h700v100H150z" horiz-adv-x="1000"/><glyph glyph-name="beach-umbrella-outline" unicode="" d="M295 555c90 90 215 130 330 120-30-40-55-90-60-140-65-5-125-35-170-80s-75-105-85-170c-50-10-100-30-140-60-10 120 35 240 125 330m-70 75C50 455 25 185 155-10c0 50 20 105 60 145 55 55 130 70 200 55-20 65-5 145 55 200 55 55 130 70 200 55-20 65 0 145 55 200 40 40 90 60 140 60-200 120-465 100-640-75zM930-10l-70-70-355 355 70 70L930-10z" horiz-adv-x="1000"/><glyph glyph-name="exclamation-thick" unicode="" d="M400 800h200l-50-550H450l-50 550M600 0c0-55-45-100-100-100S400-55 400 0s45 100 100 100S600 55 600 0z" horiz-adv-x="1000"/><glyph glyph-name="gfycat" unicode="" d="M260 30h-70c-20 0-35 5-50 20s-20 30-20 50 5 35 20 50 30 20 50 20h65c20 0 35 5 50 20s20 30 20 45v140c0 20-5 35-20 50-15 10-30 20-45 20-20 0-35-5-50-20s-20-30-20-50c0-15 5-30 15-45s15-30 15-45c0-20-5-35-20-50s-30-20-50-20c-30 0-55 20-75 60-20 35-25 65-25 100 0 55 20 105 60 145 45 40 90 60 145 60s105-20 145-60 60-90 60-145V235c0-55-20-105-60-145s-85-60-140-60zm740 325c0-15-5-30-20-45-10-10-25-20-45-20h-85v-60c0-15-5-30-20-45-10-10-25-20-45-20-15 0-30 5-45 20-10 10-20 25-20 45v250c0 50 20 95 55 135 35 35 80 55 130 55h25c15 0 30-5 45-20 20-15 25-30 25-45s-5-30-20-45c-10-10-25-20-45-20h-25c-15 0-30-5-45-20-10-10-20-25-20-45v-65h85c15 0 30-5 45-20 20-5 25-20 25-35zM665 230c0-15-5-30-20-45-10-10-25-20-45-20-15 0-30 5-45 20-10 10-20 25-20 45v205c0 15 5 30 20 45 10 10 25 20 45 20 15 0 30-5 45-20 10-10 20-25 20-45V230zM15 505C5 545 0 580 0 580c0 10 5 20 15 15 0 0 10 0 20-5 15 0 30-5 45-10 30-5 55-15 55-15s-30-20-55-45c-25-30-40-70-40-70s-15 20-25 55zm490 0c10 35 15 75 15 75 0 10-5 15-15 15 0 0-35-5-65-15-25-5-55-15-55-15s30-20 55-45c25-30 40-70 40-70s15 20 25 55zm160 100c0-15-5-30-20-45-10-10-25-20-45-20-15 0-30 5-45 20-10 10-20 25-20 45 0 15 5 30 20 45 10 10 25 20 45 20 15 0 30-5 45-20s20-25 20-45z" horiz-adv-x="1000"/><glyph glyph-name="globe" unicode="" d="M500 850C225 850 0 625 0 350s225-500 500-500 500 225 500 500-225 500-500 500zm400-525c-15-20-85-60-200-80v170c60 10 120 25 165 45 5 5 15 5 20 10 10-35 15-80 15-120v-25zM425 130c25 0 50-5 75-5s50 0 75 5C550 30 520-30 500-45c-20 15-55 75-75 175zm75 95c-35 0-65 0-95 5 0 35-5 75-5 120v55c35-5 65-5 100-5s65 0 100 5v-55c0-45-5-85-5-120-30-5-60-5-95-5zm90 280c-30-5-60-5-90-5s-60 0-90 5c20 140 65 225 90 245 25-20 70-105 90-245zm250 55c-35-15-85-35-150-45-10 80-30 155-55 210 85-30 155-85 205-165zm-680 0c50 75 120 135 210 165-25-55-45-125-60-210-65 15-115 30-150 45zm-40-90c5-5 10-5 20-10 45-20 100-35 165-45-5-20-5-40-5-65 0-35 0-70 5-105-115 20-185 60-200 80v25c-5 40 0 85 15 120zm15-280c50-20 115-40 185-50 10-65 30-120 50-165C265 10 180 90 135 190zm730 0C820 90 735 10 630-25c20 45 40 100 50 165 70 10 135 25 185 50z" horiz-adv-x="1000"/><glyph glyph-name="iframe-list-outline" unicode="" d="M900 800H100C45 800 0 755 0 700V0c0-55 45-100 100-100h800c55 0 100 45 100 100v700c0 55-45 100-100 100m0-800H100v600h800V0zM400 350v100h400V350H400M200 450h100V350H200v100m200-300v100h400V150H400M200 250h100V150H200v100" horiz-adv-x="1000"/><glyph glyph-name="oauth" unicode="" d="M500-50c-220 0-400 180-400 400s180 400 400 400 400-180 400-400S720-50 500-50m0 900C225 850 0 625 0 350s225-500 500-500 500 225 500 500-225 500-500 500zm0-150c-195 0-350-155-350-350S305 0 500 0s350 155 350 350-155 350-350 350zm140-550h-15c-20 0-40 15-45 30l-25 70H440l-20-70c-5-15-25-30-45-30h-15c-25 5-40 35-30 60l95 305c10 20 25 35 45 35h65c10-5 20-10 25-15s5-10 5-15l100-305c10-30 0-55-25-65zM250 350c0 85 45 165 115 210-5-5-5-15-10-20l-90-280c-10 30-15 60-15 90zm250-250c-15 0-30 0-45 5 15 15 30 35 35 55l5 15h5l5-20c5-20 20-40 35-55h-40zm230 160l-95 280c0 10-5 15-10 20 75-40 125-120 125-210 0-30-5-60-20-90z" horiz-adv-x="1000"/><glyph glyph-name="power-plug-outline" unicode="" d="M810 342l142 141c19 20 19 52 0 71-20 20-52 20-71 0L739 413 563 589l141 142c20 19 20 51 0 71-19 19-51 19-71 0L492 660 351 802c-20 19-52 19-71 0v-1c-20-19-20-51 0-70l35-36-159-159C21 402 11 191 124 44l-3-3L15-65c-20-19-20-51 0-70s51-20 70 0L191-29l3 3C341-139 552-129 686 6l159 159 36-35c19-20 51-20 70 0h1c19 19 19 51 0 71L810 342zM616 77C509-30 334-30 227 77s-107 282 0 389l159 159 389-389L616 77z" horiz-adv-x="1000"/><glyph glyph-name="robot-happy" unicode="" d="M900 415h35c35 0 65-30 65-65V215c0-35-30-65-65-65h-35v265zm-835 0h35V150H65c-35 0-65 30-65 65v135c0 35 30 65 65 65zm570-130c35 0 65 30 65 65s-30 65-65 65-65-30-65-65 25-65 65-65zm-270 0c35 0 65 30 65 65s-25 65-65 65-65-30-65-65 30-65 65-65zm-65-90v-10c0-75 90-135 200-135s200 60 200 135v10c-50-25-120-45-200-45s-150 15-200 45zm135 420v70c0 35 30 65 65 65s65-30 65-65v-65h135c75 0 135-60 135-135V85c0-75-60-135-135-135H300c-75 0-135 60-135 135v400c0 75 60 135 135 135h135z" horiz-adv-x="1000"/><glyph glyph-name="server-outline" unicode="" d="M850 800H150c-55 0-100-45-100-100V50C50-5 95-50 150-50h700c55 0 100 45 100 100v650c0 55-45 100-100 100zM150 450h700V300H150v150zM850 50H150v150h700V50zM150 550v150h700V550H150zm300 50H250v50h200v-50zm200 0H550v50h100v-50zM450 350H250v50h200v-50zm200 0H550v50h100v-50zM450 100H250v50h200v-50zm200 0H550v50h100v-50z" horiz-adv-x="1000"/><glyph glyph-name="slash-forward-box-outline" unicode="" d="M850 800H150c-55 0-100-45-100-100V0c0-55 45-100 100-100h700c55 0 100 45 100 100v700c0 55-45 100-100 100zm0-800H150v700h700V0zM700 600H580L300 100h120l280 500z" horiz-adv-x="1000"/><glyph glyph-name="webhook-incoming" unicode="" d="M665 395l-70 130c15 15 20 35 25 55 0 50-40 95-90 100-50 0-100-40-100-90s40-95 95-100h10l65-125c15 15 40 20 65 30zM385 520c-35 80 0 170 75 205 80 35 170-5 200-85 20-45 15-95-5-135l60-35c35 60 40 135 10 205-50 115-185 175-300 125S255 615 305 500c10-30 35-60 55-80L245 230c-20 5-40 0-60-10-45-25-65-80-40-130 25-45 85-65 130-40s65 80 40 125c0 5-5 5-5 10l155 250-15 10c-30 15-55 40-65 75zm70-350h-65v-50c-5-25-10-50-30-70-50-70-145-90-215-40s-85 145-35 215c30 40 70 65 120 70v70c-70-5-135-35-180-100C-20 160 0 15 105-55c105-75 245-50 320 55 15 25 25 50 30 75-5 15-5 30-5 50 0 15 0 30 5 45zm245 5v100L550 125 700-25V75h200v100H700z" horiz-adv-x="1000"/><glyph glyph-name="webhook-outgoing" unicode="" d="M665 395l-70 130c15 15 20 35 25 55 0 50-40 95-90 100-50 0-100-40-100-90s40-95 95-100h10l65-125c15 15 40 20 65 30zM385 520c-35 80 0 170 75 205 80 35 170-5 200-85 20-45 15-95-5-135l60-35c35 60 40 135 10 205-50 115-185 175-300 125S255 615 305 500c10-30 35-60 55-80L245 230c-20 5-40 0-60-10-45-25-65-80-40-130 25-45 85-65 130-40s65 80 40 125c0 5-5 5-5 10l155 250-15 10c-30 15-55 40-65 75zm70-350h-65v-50c-5-25-10-50-30-70-50-70-145-90-215-40s-85 145-35 215c30 40 70 65 120 70v70c-70-5-135-35-180-100C-20 160 0 15 105-55c105-75 245-50 320 55 15 25 25 50 30 75-5 15-5 30-5 50 0 15 0 30 5 45zm295 5v100l150-150L750-25V75H550v100h200z" horiz-adv-x="1000"/><glyph glyph-name="image-area-outline" unicode="" d="M900 50H100v600h800m0 100H100C45 750 0 706 0 650V50C0-5 45-50 100-50h800c55 0 100 45 100 100v600c0 56-45 100-100 100M150 150l175 225 125-150 175 225 225-300" horiz-adv-x="1000"/><glyph glyph-name="account-multiple-outline" unicode="" d="M715 140l-125 75c50 70 80 165 80 260 0 165-110 275-270 275S130 640 130 475c0-95 30-190 80-260L85 140C35 115 0 60 0 5c0-85 70-155 150-155h500c85 0 150 70 150 155 0 55-35 110-85 135zM230 475c0 120 75 175 170 175s170-55 170-175c0-75-25-155-70-210-25-35-60-55-105-55s-75 20-105 55c-35 55-60 135-60 210zM650-50H150c-30 0-50 25-50 55v15c5 10 10 20 15 25 5 0 10 5 15 5l155 95c35-20 70-30 115-30s80 10 115 30l155-95c20-10 30-25 30-50s-25-50-50-50zm195 345c15 60 25 120 25 180 0 20 0 155-95 275-40 50-125 100-175 100-35 0-65-5-90-15 65-20 125-55 170-100 50-55 80-125 90-205 0-20 5-35 5-55 0-80-15-155-45-225l40-25c25-15 50-35 70-55 25-30 45-60 55-100 5-25 10-45 10-70 0-15 0-30-5-45 50 15 85 55 100 105 5 15 5 25 5 40-5 60-50 150-160 195z" horiz-adv-x="1000"/><glyph glyph-name="account-outline" unicode="" d="M860 155l-160 95c10 15 25 30 35 50 40 70 65 160 65 250 0 180-120 300-300 300S200 730 200 550c0-90 25-180 65-255 10-20 20-35 35-50l-160-95C85 130 50 70 50 10c0-90 70-160 160-160h580c90 0 160 70 160 160 0 60-35 120-90 145zM300 550c0 140 90 200 200 200s200-60 200-200c0-90-30-190-90-250-30-30-65-50-110-50s-80 20-110 50c-60 60-90 160-90 250zM790-50H210c-35 0-60 25-60 60 0 25 15 45 35 55l195 115c40-20 80-30 120-30s80 10 115 30L810 65c20-10 35-30 35-55 5-35-20-60-55-60z" horiz-adv-x="1000"/><glyph glyph-name="airplane" unicode="" d="M950 150v100L550 500v275c0 40-35 75-75 75s-75-35-75-75V500L0 250V150l400 125V0L300-75v-75l175 50 175-50v75L550 0v275l400-125z" horiz-adv-x="1000"/><glyph glyph-name="alert-outline" unicode="" d="M982 121L632 771c-26 49-77 79-132 79s-106-30-132-79L18 121C-7 74-6 19 21-27c28-46 76-73 129-73h700c53 0 101 27 129 73 27 46 28 101 3 148zM850 0H150c-38 0-62 41-44 74l350 650c9 17 27 26 44 26s35-9 44-26L894 74c18-33-6-74-44-74zM525 300h-50l-25 300h100l-25-300zm25-150c0-28-22-50-50-50s-50 22-50 50 22 50 50 50 50-22 50-50z" horiz-adv-x="1000"/><glyph glyph-name="arrow-down" unicode="" d="M450 750h100V150l275 275 70-70L500-40 105 355l70 70 275-275v600z" horiz-adv-x="1000"/><glyph glyph-name="arrow-left" unicode="" d="M900 400V300H300L575 25l-70-70-395 395 395 395 70-70-275-275h600z" horiz-adv-x="1000"/><glyph glyph-name="arrow-up" unicode="" d="M550-50H450v600L175 275l-70 70 395 395 395-395-70-70-275 275V-50z" horiz-adv-x="1000"/><glyph glyph-name="at" unicode="" d="M500 200c40 0 75 15 105 45s45 65 45 105-15 75-45 105-65 45-105 45-75-15-105-45-45-65-45-105 15-75 45-105 65-45 105-45m0 650c140 0 255-50 350-145s150-215 150-355v-70c0-50-20-95-50-130-35-35-75-50-125-50-60 0-110 25-145 75-50-50-110-75-180-75s-130 25-175 75c-50 50-75 110-75 175 0 70 25 130 75 175 45 50 105 75 175 75s130-25 175-75c50-50 75-110 75-175v-70c0-20 10-40 25-55s35-25 50-25c20 0 40 10 55 25s20 35 20 55v70c0 110-40 205-120 285S610 750 500 750s-205-40-285-115-115-175-115-285 40-205 115-280S390-50 500-50h250v-100H500c-140 0-255 50-355 150S0 210 0 350s50 255 145 355 215 145 355 145z" horiz-adv-x="1000"/><glyph glyph-name="flask-outline" unicode="" d="M150 0c0-30 20-50 50-50h600c30 0 50 20 50 50 0 10-5 20-10 30L550 530v220H450V530L160 30c-5-10-10-20-10-30m50-150C115-150 50-85 50 0c0 30 10 60 25 80l275 480v90c-30 0-50 20-50 50v50c0 55 45 100 100 100h200c55 0 100-45 100-100v-50c0-30-20-50-50-50v-90L925 80c15-25 25-50 25-80 0-85-65-150-150-150H200m350 300l65 65 95-165H285l135 230 130-130m-25 200c15 0 25-10 25-25s-10-25-25-25-25 10-25 25 10 25 25 25z" horiz-adv-x="1000"/><glyph glyph-name="bell-outline" unicode="" d="M700 100H250v325c0 125 100 225 225 225s225-100 225-225m100-275v275c0 155-105 280-250 315v35c0 40-35 75-75 75s-75-35-75-75v-35c-145-35-250-160-250-315V150L50 50V0h850v50M475-150c55 0 100 45 100 100H375c0-55 45-100 100-100z" horiz-adv-x="1000"/><glyph glyph-name="cellphone" unicode="" d="M725 50H275v600h450m0 200H275c-55 0-100-45-100-100V-50c0-55 45-100 100-100h450c55 0 100 45 100 100v800c0 55-45 100-100 100z" horiz-adv-x="1000"/><glyph glyph-name="chart-bar" unicode="" d="M1000-100H0v900h100V0h100v450h200V0h100v650h200V0h100v250h200v-350z" horiz-adv-x="1000"/><glyph glyph-name="chart-line" unicode="" d="M700 360l210 365 85-50-260-455-325 190L175 0h825v-100H0v900h100V75l275 475 325-190z" horiz-adv-x="1000"/><glyph glyph-name="check" unicode="" d="M950 600L350 0 75 275l70 70 205-205 530 530 70-70z" horiz-adv-x="1000"/><glyph glyph-name="checkbox-blank-outline" unicode="" d="M850 800H150c-55 0-100-45-100-100V0c0-55 45-100 100-100h700c55 0 100 45 100 100v700c0 55-45 100-100 100m0-100V0H150v700h700z" horiz-adv-x="1000"/><glyph glyph-name="checkbox-marked" unicode="" d="M400 100L150 350l70 70 180-180 380 380 70-70m0 250H150c-55 0-100-45-100-100V0c0-55 45-100 100-100h700c55 0 100 45 100 100v700c0 55-45 100-100 100z" horiz-adv-x="1000"/><glyph glyph-name="chevron-down" unicode="" d="M270 520l230-230 230 230 70-70-300-300-300 300 70 70z" horiz-adv-x="1000"/><glyph glyph-name="chevron-left" unicode="" d="M670 120L440 350l230 230-70 70-300-300L600 50l70 70z" horiz-adv-x="1000"/><glyph glyph-name="chevron-right" unicode="" d="M330 120l230 230-230 230 70 70 300-300L400 50l-70 70z" horiz-adv-x="1000"/><glyph glyph-name="clock-outline" unicode="" d="M500-50c220 0 400 180 400 400S720 750 500 750 100 570 100 350 280-50 500-50m0 900c275 0 500-225 500-500S775-150 500-150 0 75 0 350s225 500 500 500m177-747L450 329v271h100V371l198-198-71-70z" horiz-adv-x="1000"/><glyph glyph-name="close" unicode="" d="M850 630l-70 70-280-280-280 280-70-70 280-280L150 70l70-70 280 280L780 0l70 70-280 280 280 280z" horiz-adv-x="1000"/><glyph glyph-name="close-circle-outline" unicode="" d="M500-50c-220 0-400 180-400 400s180 400 400 400 400-180 400-400S720-50 500-50m0 900C225 850 0 625 0 350s225-500 500-500 500 225 500 500-225 500-500 500m130-300L500 420 370 550l-70-70 130-130-130-130 70-70 130 130 130-130 70 70-130 130 130 130-70 70z" horiz-adv-x="1000"/><glyph glyph-name="code-brackets" unicode="" d="M650 750V650h150V50H650V-50h250v800m-800 0V-50h250V50H200v600h150v100H100z" horiz-adv-x="1000"/><glyph glyph-name="code-tags" unicode="" d="M630 120l230 230-230 230 70 70 300-300L700 50l-70 70m-260 0L140 350l230 230-70 70L0 350 300 50l70 70z" horiz-adv-x="1000"/><glyph glyph-name="console" unicode="" d="M900 0v600H100V0h800m0 800c55 0 100-45 100-100V0c0-55-45-100-100-100H100C45-100 0-55 0 0v700c0 55 45 100 100 100h800M550 100v100h250V100H550M380 300L180 500h140l165-165c20-20 20-50 0-70L320 100H180l200 200z" horiz-adv-x="1000"/><glyph glyph-name="dots-horizontal" unicode="" d="M700 350c0 55 45 100 100 100s100-45 100-100-45-100-100-100-100 45-100 100m-300 0c0 55 45 100 100 100s100-45 100-100-45-100-100-100-100 45-100 100m-300 0c0 55 45 100 100 100s100-45 100-100-45-100-100-100-100 45-100 100z" horiz-adv-x="1000"/><glyph glyph-name="dots-vertical" unicode="" d="M500 150c55 0 100-45 100-100S555-50 500-50 400-5 400 50s45 100 100 100m0 300c55 0 100-45 100-100s-45-100-100-100-100 45-100 100 45 100 100 100m0 300c55 0 100-45 100-100s-45-100-100-100-100 45-100 100 45 100 100 100z" horiz-adv-x="1000"/><glyph glyph-name="email-outline" unicode="" d="M1000 650c0 55-45 100-100 100H100C45 750 0 705 0 650V50C0-5 45-50 100-50h800c55 0 100 45 100 100v600m-100 0L500 400 100 650h800m0-600H100v500l400-250 400 250V50z" horiz-adv-x="1000"/><glyph glyph-name="emoticon-outline" unicode="" d="M500 75c115 0 215 75 255 175H245C285 150 385 75 500 75M325 400c40 0 75 35 75 75s-35 75-75 75-75-35-75-75 35-75 75-75m350 0c40 0 75 35 75 75s-35 75-75 75-75-35-75-75 35-75 75-75M500-50c-220 0-400 180-400 400s180 400 400 400 400-180 400-400S720-50 500-50m0 900C225 850 0 625 0 350s225-500 500-500 500 225 500 500-225 500-500 500z" horiz-adv-x="1000"/><glyph glyph-name="emoticon-happy-outline" unicode="" d="M900 350c0 220-180 400-400 400S100 570 100 350 280-50 500-50s400 180 400 400m100 0c0-275-225-500-500-500S0 75 0 350s225 500 500 500 500-225 500-500M400 475c0-40-35-75-75-75s-75 35-75 75 35 75 75 75 75-35 75-75m350 0c0-40-35-75-75-75s-75 35-75 75 35 75 75 75 75-35 75-75M500 90c-90 0-165 35-210 90l70 70c25-35 75-60 140-60s115 25 140 60l70-70c-45-55-120-90-210-90z" horiz-adv-x="1000"/><glyph glyph-name="filter-variant" unicode="" d="M200 300h600v100H200M50 650V550h900v100M400 50h200v100H400V50z" horiz-adv-x="1000"/><glyph glyph-name="fire" unicode="" d="M490 650c5-5 10-15 15-20 20-30 55-65 105-110 40-35 70-65 85-85 25-30 45-60 60-90 15-35 20-80 20-120 0-50-10-95-35-135-25-45-60-75-100-100-45-30-90-40-140-40s-95 10-135 35c-45 25-75 60-100 100s-35 85-35 135c0 45 10 85 30 125 0 0 0 5 5 5v-70c0-50 20-95 50-125 35-35 80-50 125-50s95 20 125 50c35 35 50 80 50 125 0 30-10 60-25 90-5 15-15 35-35 65-30 50-45 80-55 95-10 35-15 65-15 100 5 10 5 15 5 20m10 200h-5c-15 0-25-10-35-20-40-65-65-125-70-185-5-50 5-95 20-145 10-25 30-65 60-110 15-25 25-45 30-55 10-15 15-30 15-45 0-20-5-40-20-55s-35-20-55-20-40 5-55 20-20 35-20 55v205c0 20-10 30-25 40-15 5-20 5-30 5s-15 0-25-5c-50-35-90-80-115-135-30-55-45-115-45-175 0-70 15-130 50-185S255-65 310-95s120-50 190-50 130 15 190 50S795-15 825 40c35 55 50 120 50 185 0 55-10 110-30 160-15 40-40 75-75 115-20 20-50 55-90 90-45 40-75 75-90 95-25 40-40 75-40 115 0 15-5 25-15 35-15 10-25 15-35 15z" horiz-adv-x="1000"/><glyph glyph-name="flag" unicode="" d="M620 650l-20 100H150v-850h100v350h280l20-100h350v500H620z" horiz-adv-x="1000"/><glyph glyph-name="flag-outline" unicode="" d="M520 650l20-100h260V250H630l-20 100H250v300h270m80 100H150v-850h100v350h280l20-100h350v500H620" horiz-adv-x="1000"/><glyph glyph-name="format-bold" unicode="" d="M525 125H350v150h175c41 0 75-34 75-75s-34-75-75-75M350 575h150c41 0 75-34 75-75s-34-75-75-75H350m280-64c49 34 83 89 83 139 0 113-88 200-200 200H200V0h352c105 0 186 85 186 190 0 76-43 141-108 171z" horiz-adv-x="1000"/><glyph glyph-name="format-clear" unicode="" d="M250 700v-9l141-141h120l-36-84 105-105 81 189h289v150H250m-136 0l-64-63 349-349L275 0h150l79 183 283-283 63 63-722 724-14 13z" horiz-adv-x="1000"/><glyph glyph-name="format-header-1" unicode="" d="M50 700h100V400h200v300h100V0H350v300H150V0H50v700M600 0v100h100v485l-125-72v115l125 72h100V100h100V0H600z" horiz-adv-x="1000"/><glyph glyph-name="format-header-2" unicode="" d="M50 700h100V400h200v300h100V0H350v300H150V0H50v700M950 0H650c-55 0-100 45-100 100 0 27 10 50 27 68l244 262c18 18 29 43 29 70 0 55-45 100-100 100s-100-45-100-100H550c0 110 90 200 200 200s200-90 200-200c0-55-22-105-58-141L650 100h300V0z" horiz-adv-x="1000"/><glyph glyph-name="format-header-3" unicode="" d="M50 700h100V400h200v300h100V0H350v300H150V0H50v700m600 0h200c55 0 100-45 100-100V100C950 45 905 0 850 0H650c-55 0-100 45-100 100v50h100v-50h200v200H650v100h200v200H650v-50H550v50c0 55 45 100 100 100z" horiz-adv-x="1000"/><glyph glyph-name="format-header-4" unicode="" d="M50 700h100V400h200v300h100V0H350v300H150V0H50v700M800 0v250H550v100l250 350h100V350h50V250h-50V0H800m0 350v179L673 350h127z" horiz-adv-x="1000"/><glyph glyph-name="format-header-5" unicode="" d="M50 700h100V400h200v300h100V0H350v300H150V0H50v700m600 0h250V600H650V400h100c110 0 200-90 200-200S860 0 750 0H650c-55 0-100 45-100 100v50h100v-50h100c55 0 100 45 100 100s-45 100-100 100H650c-55 0-100 45-100 100v200c0 55 45 100 100 100z" horiz-adv-x="1000"/><glyph glyph-name="format-header-6" unicode="" d="M50 700h100V400h200v300h100V0H350v300H150V0H50v700m600 0h200c55 0 100-45 100-100v-50H850v50H650V400h200c55 0 100-45 100-100V100C950 45 905 0 850 0H650c-55 0-100 45-100 100v500c0 55 45 100 100 100m0-400V100h200v200H650z" horiz-adv-x="1000"/><glyph glyph-name="format-italic" unicode="" d="M400 700V550h111L340 150H200V0h400v150H490l171 400h139v150H400z" horiz-adv-x="1000"/><glyph glyph-name="format-list-bulleted" unicode="" d="M250 700h700V600H250v100m0-400v100h700V300H250M100 725c40 0 75-35 75-75s-35-75-75-75-75 35-75 75 35 75 75 75m0-300c40 0 75-35 75-75s-35-75-75-75-75 35-75 75 35 75 75 75M250 0v100h700V0H250M100 125c40 0 75-35 75-75s-35-75-75-75-75 35-75 75 35 75 75 75z" horiz-adv-x="1000"/><glyph glyph-name="format-list-numbered" unicode="" d="M250 300v100h700V300H250m0-300v100h700V0H250m0 600v100h700V600H250M50 550v150H0v50h100V550H50M0 100v50h150V-50H0V0h100v25H50v50h50v25H0m110 350c25 0 40-15 40-40 0-10-5-20-10-25l-85-85h95v-50H0v45l100 105H0v50h110z" horiz-adv-x="1000"/><glyph glyph-name="format-strikethrough-variant" unicode="" d="M1000 350V250H831c50-107 47-400-312-400-416-3-400 325-400 325l198-2C319 4 475 4 506 6c32 3 152 2 161 119 4 55-51 96-111 125H0v100h1000M871 549l-199 1s8 139-164 139c-173 1-158-110-158-124 2-14 17-82 150-115H186S11 786 437 843c436 60 435-295 434-294z" horiz-adv-x="1000"/><glyph glyph-name="github-circle" unicode="" d="M500 850C225 850 0 625 0 350 0 130 145-60 340-125c25-5 35 10 35 25v85C235-45 205 50 205 50c-20 60-55 75-55 75-45 30 5 30 5 30 50-5 75-50 75-50 45-80 120-55 145-45 5 30 20 55 30 65-110 10-230 55-230 245 0 55 20 100 50 135 5 20-15 70 15 135 0 0 40 15 140-50 35 15 75 20 120 20s85-5 125-15c95 65 140 50 140 50 25-65 10-120 5-130 30-35 50-80 50-135 0-190-115-235-230-245 20-15 35-45 35-95V-95c0-15 10-30 35-25 200 65 340 255 340 475 0 270-225 495-500 495z" horiz-adv-x="1000"/><glyph glyph-name="heart-outline" unicode="" d="M505 25l-5-5-5 5C255 240 100 380 100 525c0 100 75 175 175 175 75 0 150-50 180-120h95c25 70 100 120 175 120 100 0 175-75 175-175 0-145-155-285-395-500m220 775c-85 0-170-40-225-105-55 65-140 105-225 105C120 800 0 680 0 525 0 335 170 180 430-50l70-65 70 65c260 235 430 390 430 575 0 155-120 275-275 275z" horiz-adv-x="1000"/><glyph glyph-name="help" unicode="" d="M400 0h150v-150H400V0m100 850c270-10 385-280 225-485-40-50-110-85-140-125-35-40-35-90-35-140H400c0 85 0 155 35 205s100 80 140 110c120 115 90 270-75 285-85 0-150-65-150-150H200c0 165 135 300 300 300z" horiz-adv-x="1000"/><glyph glyph-name="information-outline" unicode="" d="M450 500h100v100H450m50-650c-220 0-400 180-400 400s180 400 400 400 400-180 400-400S720-50 500-50m0 900C225 850 0 625 0 350s225-500 500-500 500 225 500 500-225 500-500 500m-50-750h100v300H450V100z" horiz-adv-x="1000"/><glyph glyph-name="laptop" unicode="" d="M850 100c55 0 100 45 100 100v400c0 55-45 100-100 100H150c-55 0-100-45-100-100V200c0-55 45-100 100-100H0V0h1000v100H850zM150 600h700V200H150v400z" horiz-adv-x="1000"/><glyph glyph-name="leaf" unicode="" d="M750 550C300 450 195 140 90-115l95-35 45 115c25-10 50-15 70-15 550 0 700 850 700 850-50-100-400-110-650-160S0 380 0 280 90 90 90 90c160 460 660 460 660 460z" horiz-adv-x="1000"/><glyph glyph-name="lightbulb-outline" unicode="" d="M500 850c195 0 350-155 350-350 0-120-60-225-150-285V100c0-30-20-50-50-50H350c-30 0-50 20-50 50v115c-90 60-150 165-150 285 0 195 155 350 350 350M350-100v50h300v-50c0-30-20-50-50-50H400c-30 0-50 20-50 50m150 850c-140 0-250-110-250-250 0-105 60-190 150-230V150h200v120c90 40 150 125 150 230 0 140-110 250-250 250z" horiz-adv-x="1000"/><glyph glyph-name="link-variant" unicode="" d="M430 280c20-20 20-50 0-70s-50-20-70 0c-100 95-100 255 0 355l175 175c95 95 255 95 355 0s95-255 0-355l-75-75c0 40-5 80-20 120l25 25c60 60 60 155 0 210-60 60-155 60-210 0L430 490c-60-55-60-150 0-210m140 210c20 20 50 20 70 0 100-95 100-255 0-355L465-40c-95-95-255-95-355 0s-95 255 0 355l75 75c0-40 5-80 20-120l-25-25c-60-60-60-155 0-210 60-60 155-60 210 0l175 175c60 60 60 155 0 210-15 20-15 50 5 70z" horiz-adv-x="1000"/><glyph glyph-name="link-variant-off" unicode="" d="M0 685l65 65L900-85l-65-65L595 90 465-40c-95-95-255-95-355 0s-95 255 0 355l75 75c0-40 5-80 20-120l-25-25c-60-60-60-155 0-210 60-60 155-60 210 0l130 130-80 80c0-10-5-25-15-35-20-20-50-20-70 0-50 50-75 120-70 190L0 685m535 55c95 95 255 95 355 0s95-255 0-355l-75-75c0 40-5 80-20 120l25 25c60 60 60 155 0 210-60 60-155 60-210 0L440 500l-70 70 165 170m35-250c20 20 50 20 70 0 70-70 90-165 60-255l-90 90c-5 35-15 70-45 95-15 20-15 50 5 70z" horiz-adv-x="1000"/><glyph glyph-name="lock-outline" unicode="" d="M800-50v450H200V-50h600m0 550c55 0 100-45 100-100V-50c0-55-45-100-100-100H200c-55 0-100 45-100 100v450c0 55 45 100 100 100h50v100c0 140 110 250 250 250s250-110 250-250V500h50M500 750c-85 0-150-65-150-150V500h300v100c0 85-65 150-150 150z" horiz-adv-x="1000"/><glyph glyph-name="magnify" unicode="" d="M911 9L723 197c48 63 77 142 77 228 0 207-168 375-375 375S50 632 50 425 218 50 425 50c85 0 164 29 227 77L841-61c19-19 51-19 70 0 19 20 19 50 0 70zM150 425c0 152 123 275 275 275s275-123 275-275-123-275-275-275-275 123-275 275z" horiz-adv-x="1000"/><glyph glyph-name="menu" unicode="" d="M50 650h900V550H50v100m0-250h900V300H50v100m0-250h900V50H50v100z" horiz-adv-x="1000"/><glyph glyph-name="menu-down" unicode="" d="M250 450l250-250 250 250H250z" horiz-adv-x="1000"/><glyph glyph-name="minus-box" unicode="" d="M750 300H250v100h500m100 400H150c-55 0-100-45-100-100V0c0-55 45-100 100-100h700c55 0 100 45 100 100v700c0 55-45 100-100 100z" horiz-adv-x="1000"/><glyph glyph-name="minus-circle" unicode="" d="M750 300H250v100h500M500 850C225 850 0 625 0 350s225-500 500-500 500 225 500 500-225 500-500 500z" horiz-adv-x="1000"/><glyph glyph-name="paperclip" unicode="" d="M725 600V125c0-110-90-200-200-200S325 15 325 125v525c0 69 56 125 125 125s125-56 125-125V175c0-28-22-50-50-50s-50 22-50 50v425h-75V175c0-69 56-125 125-125s125 56 125 125v475c0 111-90 200-200 200s-200-89-200-200V125c0-152 123-275 275-275S800-27 800 125v475h-75z" horiz-adv-x="1000"/><glyph glyph-name="plus" unicode="" d="M850 300H550V0H450v300H150v100h300v300h100V400h300V300z" horiz-adv-x="1000"/><glyph glyph-name="plus-box" unicode="" d="M750 300H550V100H450v200H250v100h200v200h100V400h200m100 400H150c-55 0-100-45-100-100V0c0-55 45-100 100-100h700c55 0 100 45 100 100v700c0 55-45 100-100 100z" horiz-adv-x="1000"/><glyph glyph-name="refresh" unicode="" d="M780 635c-70 70-170 115-280 115-220 0-400-180-400-400S280-50 500-50c185 0 340 125 385 300H780C740 135 630 50 500 50c-165 0-300 135-300 300s135 300 300 300c85 0 155-35 210-90L550 400h350v350L780 635z" horiz-adv-x="1000"/><glyph glyph-name="send" unicode="" d="M0-100l1000 450L0 800V450l700-100L0 250v-350z" horiz-adv-x="1000"/><glyph glyph-name="shield-outline" unicode="" d="M500 740l300-135V395c0-200-125-385-300-440-175 55-300 240-300 440v210l300 135m0 110L100 670V395c0-250 170-490 400-545 230 55 400 295 400 545v275L500 850z" horiz-adv-x="1000"/><glyph glyph-name="sitemap" unicode="" d="M900 140v160c0 55-45 100-100 100H550v160c60 20 100 75 100 140 0 85-65 150-150 150s-150-65-150-150c0-65 40-120 100-140V400H200c-55 0-100-45-100-100V140C40 120 0 65 0 0c0-85 65-150 150-150S300-85 300 0c0 65-40 120-100 140v160h250V140C390 120 350 65 350 0c0-85 65-150 150-150S650-85 650 0c0 65-40 120-100 140v160h250V140C740 120 700 65 700 0c0-85 65-150 150-150s150 65 150 150c0 65-40 120-100 140z" horiz-adv-x="1000"/><glyph glyph-name="soccer" unicode="" d="M500 850C225 850 0 625 0 350s225-500 500-500 500 225 500 500-225 500-500 500m0-50c90 0 170-25 240-70l-15-30H500l-85 40 20 50c20 10 40 10 65 10m-125-20l-15-50-130-65-60-10c55 60 125 105 205 125m175-130h150l135-180-60-130-130-30-170 195 75 145m-340-35l40-165-60-155-130-45c-5 35-10 65-10 100 0 95 30 180 80 255l80 10m720-125c15-45 20-90 20-140 0-70-20-140-50-200h-50l-40 165 75 150 45 25m-630-40h150l140-165-90-135-160-40-115 155 75 185m200-350L650 0l-45-85c-35-10-70-15-105-15-90 0-170 25-240 70l60 85 180 45m350 0h25C825 25 750-35 665-65l35 65 150 100z" horiz-adv-x="1000"/><glyph glyph-name="source-pull" unicode="" d="M200 800c85 0 150-65 150-150 0-65-40-120-100-140V195c60-20 100-75 100-140 0-85-65-150-150-150S50-30 50 55c0 65 40 120 100 140v315C90 530 50 585 50 650c0 85 65 150 150 150m0-100c-30 0-50-20-50-50s20-50 50-50 50 20 50 50-20 50-50 50m0-600c-30 0-50-20-50-50s20-50 50-50 50 20 50 50-20 50-50 50m750-50c0-85-65-150-150-150S650-35 650 50c0 65 40 120 100 140v410H650V450L440 650l210 200V700h100c55 0 100-45 100-100V190c60-20 100-75 100-140m-150 50c-30 0-50-20-50-50s20-50 50-50 50 20 50 50-20 50-50 50z" horiz-adv-x="1000"/><glyph glyph-name="star" unicode="" d="M500 850c-30 0-60-20-70-50l-90-250-265-5c-30 0-60-20-70-50s0-65 25-85l215-160L170-5c-10-30 0-65 25-80 10-10 25-15 40-15s30 5 45 15L500 65 720-85c15-10 30-15 45-15s30 5 45 15c25 20 35 50 25 80l-80 255 215 160c25 20 35 55 25 85s-40 50-70 50l-265 5-90 250c-10 30-40 50-70 50z" horiz-adv-x="1000"/><glyph glyph-name="star-outline" unicode="" d="M500 775l105-300 320-5-255-190 95-305-265 180L235-25l95 305L75 470l320 5 105 300m0 75c-30 0-60-20-70-50l-90-250-265-5c-30 0-60-20-70-50s0-65 25-85l215-160L170-5c-10-30 0-65 25-80 10-10 25-15 40-15s30 5 45 15L500 65 720-85c15-10 30-15 45-15s30 5 45 15c25 20 35 50 25 80l-80 255 215 160c25 20 35 55 25 85s-40 50-70 50l-265 5-90 250c-10 30-40 50-70 50z" horiz-adv-x="1000"/><glyph glyph-name="sync" unicode="" d="M490 75c-150 0-275 120-275 275 0 45 10 90 30 125l-65 70c-35-55-55-125-55-195 0-200 165-365 365-365v-135L670 30 490 210m0 505v135L305 670l180-180v135c150 0 275-120 275-275 0-45-10-90-30-125l65-65c35 55 55 120 55 195 0 195-160 360-360 360z" horiz-adv-x="1000"/><glyph glyph-name="alert-circle-outline" unicode="" d="M500 850C225 850 0 625 0 350s225-500 500-500 500 225 500 500-225 500-500 500m0-900c-220 0-400 180-400 400s180 400 400 400 400-180 400-400S720-50 500-50zm25 350h-50l-25 300h100l-25-300zm25-150c0-28-22-50-50-50s-50 22-50 50 22 50 50 50 50-22 50-50z" horiz-adv-x="1000"/><glyph glyph-name="check-circle" unicode="" d="M500 850C224 850 0 626 0 350s224-500 500-500 500 224 500 500-224 500-500 500zm-88-735l-71 71-141 142 71 70 141-141 318 318 71-71-389-389z" horiz-adv-x="1000"/><glyph glyph-name="email-variant" unicode="" d="M500 300L0 610v40c0 55 45 100 100 100h800c55 0 100-45 100-100v-40L500 300m500-250c0-55-45-100-100-100H100C45-50 0-5 0 50v445l100-60V50h800v380l100 60V50z" horiz-adv-x="1000"/><glyph glyph-name="food-fork-drink" unicode="" d="M50 800c-30 0-50-20-50-50V475c0-85 50-155 125-185V-25c0-40 35-75 75-75s75 35 75 75v315c75 30 125 100 125 185v275c0 30-20 50-50 50s-50-20-50-50V550c0-15-10-25-25-25s-25 10-25 25v200c0 30-20 50-50 50s-50-20-50-50V550c0-15-10-25-25-25s-25 10-25 25v200c0 30-20 50-50 50m845 0c-5 0-15-5-20-10L700 690V500H500V400h50l50-500h300l50 500h50v100H800v135l125 75c25 10 30 40 15 65-10 20-25 25-45 25z" horiz-adv-x="1000"/><glyph glyph-name="arrow-collapse" unicode="" d="M875 795L650 570v180H550V400h350v100H720l225 225-70 70M100 300V200h180L55-25l70-70 225 225V-50h100v350H100z" horiz-adv-x="1000"/><glyph glyph-name="arrow-expand" unicode="" d="M400-100V0H220l225 225-70 70L150 70v180H50v-350h350m225 505l225 225V450h100v350H600V700h180L555 475l70-70z" horiz-adv-x="1000"/><glyph glyph-name="source-branch" unicode="" d="M550 250c-170 0-225-70-240-110 50-25 90-80 90-140 0-85-65-150-150-150S100-85 100 0c0 65 40 120 100 140v420c-60 20-100 75-100 140 0 85 65 150 150 150s150-65 150-150c0-65-40-120-100-140V295c45 30 110 55 200 55 135 0 180 65 195 110-55 25-95 80-95 140 0 85 65 150 150 150s150-65 150-150c0-65-45-125-105-145-15-70-60-205-245-205M250 50c-30 0-50-20-50-50s20-50 50-50 50 20 50 50-20 50-50 50m0 700c-30 0-50-20-50-50s20-50 50-50 50 20 50 50-20 50-50 50m500-100c-30 0-50-20-50-50s20-50 50-50 50 20 50 50-20 50-50 50z" horiz-adv-x="1000"/><glyph glyph-name="tune" unicode="" d="M50 100V0h300v100H50m0 600V600h500v100H50m500-800V0h400v100H550v100H450v-300h100M250 500V400H50V300h200V200h100v300H250m700-200v100H450V300h500M650 500h100v100h200v100H750v100H650V500z" horiz-adv-x="1000"/><glyph glyph-name="webhook" unicode="" d="M425 0c-75-105-215-130-320-55C0 15-20 160 50 260c45 60 110 95 180 100l5-70c-45-5-90-25-120-70C65 150 80 50 150 5c70-50 165-30 215 40 15 20 25 45 30 70v50h280l5 5c25 45 85 60 130 35s60-85 35-130-85-60-130-35c-20 10-35 30-40 50H470c-15-25-25-60-45-90m360 355c125-15 215-130 200-255S855-115 730-100C655-90 595-50 560 10l60 35c25-40 65-65 115-75 90-10 165 50 175 130 10 85-50 160-140 170-25 5-55 0-75-10l-40-10-130 240h-10c-55 0-95 45-90 95 0 50 45 90 100 90 55-5 95-45 95-95 0-20-10-40-25-60l95-175c30 10 60 15 95 10M310 495c-50 120 5 250 120 300s250-5 300-125c30-70 25-145-10-205l-60 35c20 40 25 90 5 135-35 80-125 120-200 85-80-30-115-120-85-200 15-35 40-60 70-75l20-10-155-250s5-5 5-10c25-45 5-105-40-125-45-25-105-5-130 40s-10 105 40 130c20 10 40 15 60 10l115 190c-20 15-40 40-55 75z" horiz-adv-x="1000"/><glyph glyph-name="eye-outline" unicode="" d="M500 500c85 0 150-65 150-150s-65-150-150-150-150 65-150 150 65 150 150 150m0 225c250 0 415-155 500-375C915 130 750-25 500-25S85 130 0 350c85 220 250 375 500 375M110 350C190 180 315 75 500 75s310 105 390 275c-80 170-205 275-390 275S190 520 110 350z" horiz-adv-x="1000"/><glyph glyph-name="cancel" unicode="" d="M500 850c275 0 500-225 500-500S775-150 500-150 0 75 0 350s225 500 500 500m0-100c-220 0-400-180-400-400 0-95 30-180 85-245l560 560c-65 55-150 85-245 85m0-800c220 0 400 180 400 400 0 95-30 180-85 245L255 35c65-55 150-85 245-85z" horiz-adv-x="1000"/><glyph glyph-name="format-quote-open" unicode="" d="M400 600L300 400h150V100H150v300l100 200h150m400 0L700 400h150V100H550v300l100 200h150z" horiz-adv-x="1000"/><glyph glyph-name="square" unicode="" d="M800 750H200c-55 0-100-45-100-100V50c0-55 45-100 100-100h600c55 0 100 45 100 100v600c0 55-45 100-100 100z" horiz-adv-x="1000"/><glyph glyph-name="circle-outline" unicode="" d="M500-50c-220 0-400 180-400 400s180 400 400 400 400-180 400-400S720-50 500-50m0 900C225 850 0 625 0 350s225-500 500-500 500 225 500 500-225 500-500 500z" horiz-adv-x="1000"/><glyph glyph-name="account-plus-outline" unicode="" d="M152 0c-29 0-52 24-52 53 0 5 1 10 2 15 3 10 9 19 16 25 4 3 9 6 13 8l155 93c33-20 72-31 114-31s81 11 114 31l18-10c15 30 35 57 59 81h-1c53 70 81 165 81 260 1 165-109 275-271 275S129 690 129 525c0-95 28-191 81-260L84 189C33 164 0 111 0 53c0-85 68-153 152-153h388c-17 30-29 64-35 100H152zm248 700c95 0 172-54 172-175 0-74-25-156-68-208-28-33-62-54-104-54-13 0-26 2-38 6-6 2-12 4-18 7-11 6-21 14-31 23-6 5-11 11-17 18-3 4-7 9-10 13-8 12-16 25-22 38-10 20-18 42-24 65-3 15-6 31-8 46s-3 31-3 46c0 121 76 175 171 175zm350-450h100V100h150V0H850v-150H750V0H600v100h150v150" horiz-adv-x="1000"/><glyph glyph-name="forum-outline" unicode="" d="M750 250c30 0 50 20 50 50v500c0 30-20 50-50 50H50c-30 0-50-20-50-50V50l200 200h550zm-650 40v460h600V350H160l-60-60zm850 360h-50V90l-60 60H200V90c5-20 25-40 50-40h550l200-200v750c0 30-20 50-50 50z" horiz-adv-x="1000"/><glyph glyph-name="settings-outline" unicode="" d="M500 550c110 0 200-90 200-200s-90-200-200-200-200 90-200 200 90 200 200 200m0-100c-55 0-100-45-100-100s45-100 100-100 100 45 100 100-45 100-100 100M400-150c-10 0-25 10-25 20L355 0c-30 10-60 30-85 50L145 0c-10-5-25 0-30 10L15 185c-5 10-5 25 5 30l110 85-5 50 5 50-105 80c-10 10-15 25-10 35l100 175c10 5 20 10 30 5l125-50c25 20 55 35 85 50l20 135c0 10 15 20 25 20h200c10 0 25-10 25-20l20-135c30-10 60-30 85-50l125 50c10 5 25 0 30-10l100-175c5-10 5-25-5-30l-110-80 5-50-5-50 105-80c10-5 10-20 5-30L880 15c-5-15-15-15-30-15L725 50c-25-20-55-35-85-50l-20-130c0-10-10-20-25-20H400m60 900l-15-130c-60-10-115-45-150-90l-120 50-40-60 105-80c-20-60-20-120 0-180l-105-80 40-65 120 50c40-45 90-75 150-90l15-125h75l20 130c60 10 110 45 150 90l120-50 40 65-105 75c20 60 20 120 0 180l105 80-40 65-120-50c-40 45-90 75-150 90l-15 125h-80z" horiz-adv-x="1000"/><glyph glyph-name="hammer" unicode="" d="M700 700l150-150-25-25c50-50 75-75 100-50l75-75c0-50-75-125-125-125l-75 75c25 25 0 50-50 100l-50-50-150 150c75 100 0 200-200 150 50 50 100 100 150 100 25 0 100 0 200-100M0-50l100-100 500 500-100 100L0-50z" horiz-adv-x="1000"/><glyph glyph-name="pin-outline" unicode="擄" d="M985 460l-50 50-324 325-1 1c-19 19-51 19-70-1-20-20-20-51 0-71l15-14-222-220c-85 10-171-1-250-33-16-6-28-20-32-36-3-17 2-34 14-46l213-213L75 0 25-125l125 50 203 202L565-85c12-12 30-17 46-13 17 3 31 15 36 32 32 79 44 165 33 250l220 220 14-15c20-20 52-20 71 0 20 20 20 51 0 71zM588 236c-13-13-18-32-12-50 12-46 12-94 0-141L195 426c46 12 95 12 141 0 18-5 37 0 50 13l239 240 203-203-240-240z" horiz-adv-x="1000"/><glyph glyph-name="clock" unicode="肋" d="M500 850C225 850 0 625 0 350s225-500 500-500 500 225 500 500-225 500-500 500m177-747L450 329v271h100V371l198-198-71-70z" horiz-adv-x="1000"/><glyph glyph-name="image-outline" unicode="掠" d="M850 0H150v700h700m0 100H150c-55 0-100-45-100-100V0c0-55 45-100 100-100h700c55 0 100 45 100 100v700c0 55-45 100-100 100M600 335L460 160 360 280 225 100h550L600 335z" horiz-adv-x="1000"/><glyph glyph-name="email-plus-outline" unicode="匿" d="M1000 0v100H900v100H800V100H700V0h100v-100h100V0h100M600 100H100v400l350-200 350 200V300h100v300c0 55-45 100-100 100H100C45 700 0 655 0 600V100C0 45 45 0 100 0h500m200 600L450 400 100 600h700z" horiz-adv-x="1000"/><glyph glyph-name="file-document-outline" unicode="吝" d="M200 850c-55 0-100-45-100-100V-50c0-55 45-100 100-100h600c55 0 100 45 100 100v600L600 850H200m0-100h350V500h250V-50H200v800m100-400V250h400v100H300m0-200V50h250v100H300z" horiz-adv-x="1000"/><glyph glyph-name="layers-outline" unicode="什" d="M500 25l370 285 80-65-450-350L50 245l80 65L500 25m0 125L50 500l450 350 450-350-450-350m0 575L215 500l285-225 285 225-285 225z" horiz-adv-x="1000"/><glyph glyph-name="bell-off-outline" unicode="敖" d="M55 800L0 745l180-180c-20-45-30-90-30-140V150L50 50V0h695l150-150 55 55L55 800zm195-700v325c0 20 5 45 10 60l385-385H250zm225 550c125 0 225-100 225-225V255l100-100v270c0 155-105 280-250 315v35c0 40-35 75-75 75s-75-35-75-75v-35c-45-10-90-30-125-60l70-70c40 25 80 40 130 40zm0-800c55 0 100 45 100 100H375c0-55 45-100 100-100z" horiz-adv-x="1000"/><glyph glyph-name="chevron-down-circle-outline" unicode="﬌" d="M1000 350c0-275-225-500-500-500S0 75 0 350s225 500 500 500 500-225 500-500m-100 0c0 220-180 400-400 400S100 570 100 350 280-50 500-50s400 180 400 400M200 450l300-300 300 300-70 70-230-230-230 230-70-70z" horiz-adv-x="1000"/><glyph glyph-name="format-letter-case" unicode="﬙" d="M907 50c-3 9-8 23-10 45-34-35-74-53-121-53-41 0-76 12-102 36-27 22-40 53-40 89 0 44 16 78 50 103 33 24 80 36 141 36h70v32c0 25-7 44-22 59-15 14-38 21-67 21-26 0-47-6-65-18-17-12-26-27-26-44h-73c0 21 8 42 23 62 14 20 35 35 61 47 25 10 53 17 84 17 49 0 87-12 115-36s42-58 43-101V150c0-40 5-71 15-94v-6h-76m-120 56c22 0 44 6 64 16 20 11 35 25 44 42v78h-56c-89 0-133-23-133-70 0-22 7-37 23-48 15-12 34-18 58-18M177 265h203L279 536 177 265m59 385h86L557 50h-96l-49 129H145L97 50H0l236 600z" horiz-adv-x="1000"/><glyph glyph-name="account-group-outline" unicode="הּ" d="M773 124l-92 57c40 61 62 141 62 219 0 150-98 250-243 250S257 550 257 400c0-78 22-158 62-219l-92-57c-47-24-77-74-77-129 0-80 64-145 143-145h414c79 0 143 65 143 145 0 55-30 105-77 129zM357 400c0 104 64 150 143 150s143-46 143-150c0-45-10-94-29-134-6-12-12-23-19-32-3-5-7-10-11-15-18-22-41-38-68-43-5 0-10-1-16-1-39 0-72 24-96 59-30 44-47 108-47 166zM707-50H293c-24 0-43 20-43 45 0 18 10 35 26 42l115 71c32-21 68-33 109-33s77 12 109 33l115-71c16-7 26-24 26-42 0-25-19-45-43-45zm293 338c0 50-27 97-70 121l-25 16c38 54 59 128 59 200 0 133-88 225-214 225-106 0-185-66-207-166 35-5 67-16 96-31 3 19 8 36 16 50 8 12 19 23 31 30 18 12 40 17 64 17 63 0 114-39 114-125 0-52-15-109-43-146-13-17-27-29-44-36 1-14 3-28 3-43 0-20-1-40-4-59 18 2 35 7 51 15l52-34c13-6 21-19 21-34 0-21-15-38-34-38H755c-7-19-14-39-24-56l60-37c4-2 7-5 11-7h64c74 0 134 62 134 138zm-731-94c-10 17-17 37-24 56H134c-19 0-34 17-34 38 0 15 8 28 21 34l52 34c16-8 33-13 51-15-3 19-4 39-4 59 0 15 2 29 3 43-16 7-31 19-44 36-28 37-43 94-43 146 0 32 7 58 19 77 8 13 19 24 31 31 18 12 40 17 64 17 56 0 102-30 112-96 29 15 60 25 95 30-22 100-101 166-207 166-126 0-214-92-214-225 0-72 21-146 59-200l-24-16C27 385 0 338 0 288c0-76 60-138 134-138h64c4 2 7 5 11 7l60 37z" horiz-adv-x="1000"/><glyph glyph-name="download-outline" unicode="ﭫ" d="M850 50H150V-50h700V50zM450 850h100V340l225 225 70-70-345-345-345 345 70 70 225-225v510z" horiz-adv-x="1000"/><glyph glyph-name="video-outline" unicode="﮸" d="M650 625V495c0-30 20-50 50-50h20c20 0 40 5 55 15l125 85V145l-125 85c-15 10-35 15-55 15h-20c-30 0-50-20-50-50V75H100v550h550m0 100H100C45 725 0 680 0 625V75C0 20 45-25 100-25h550c55 0 100 45 100 100v50l95-65c15-10 35-15 55-15 15 0 30 5 45 10 35 15 55 50 55 90v400c0 35-20 70-55 90-15 10-30 10-45 10-20 0-40-5-55-15l-95-65v60c0 55-45 100-100 100z" horiz-adv-x="1000"/><glyph glyph-name="pencil-outline" unicode="ﲒ" d="M605 500l45-45L195 0h-45v45l455 455m180 300c-10 0-25-5-35-15l-90-90 185-190 90 95c20 20 20 50 0 70L820 785c-10 10-25 15-35 15M605 640L50 90v-190h190l550 555-185 185z" horiz-adv-x="1000"/><glyph glyph-name="camera-outline" unicode="ﴹ" d="M900 750H740l-90 100H350l-90-100H100C45 750 0 705 0 650V50C0-5 45-50 100-50h800c55 0 100 45 100 100v600c0 55-45 100-100 100m0-700H100v600h205l90 100h210l90-100h205V50M500 600c-140 0-250-110-250-250s110-250 250-250 250 110 250 250-110 250-250 250m0-400c-85 0-150 65-150 150s65 150 150 150 150-65 150-150-65-150-150-150z" horiz-adv-x="1000"/><glyph glyph-name="file-video-outline" unicode="︐" d="M600 850l300-300V-50c0-55-45-100-100-100H200c-55 0-100 45-100 100v800c0 55 45 100 100 100h400M800-50v550H550v250H200V-50h600M700 50l-125 85V50H300v250h275v-85l125 85V50z" horiz-adv-x="1000"/><glyph glyph-name="palette-outline" unicode="﹬" d="M500-150C225-150 0 75 0 350s225 500 500 500 500-200 500-450c0-165-135-300-300-300h-90c-15 0-25-10-25-25 0-5 5-10 5-15 20-25 30-55 30-85 5-70-50-125-120-125m0 900c-220 0-400-180-400-400S280-50 500-50c15 0 25 10 25 25 0 10-5 15-5 20-20 25-30 50-30 80 0 70 55 125 125 125h85c110 0 200 90 200 200 0 195-180 350-400 350M225 450c40 0 75-35 75-75s-35-75-75-75-75 35-75 75 35 75 75 75m150 200c40 0 75-35 75-75s-35-75-75-75-75 35-75 75 35 75 75 75m250 0c40 0 75-35 75-75s-35-75-75-75-75 35-75 75 35 75 75 75m150-200c40 0 75-35 75-75s-35-75-75-75-75 35-75 75 35 75 75 75z" horiz-adv-x="1000"/><glyph glyph-name="file-music-outline" unicode="ﹼ" d="M600 850l300-300V-50c0-55-45-100-100-100H200c-55 0-100 45-100 100v800c0 55 45 100 100 100h400M800-50v550H550v250H200V-50h600M550 450V350H450V100C450 45 405 0 350 0S250 45 250 100s45 100 100 100c20 0 35-5 50-15v265h150z" horiz-adv-x="1000"/><glyph glyph-name="file-pdf-outline" unicode="ﹽ" d="M600 850l300-300V-50c0-55-45-100-100-100H200c-55 0-100 45-100 100v800c0 55 45 100 100 100h400M800-50v550H550v250H200V-50h600M445 335c-10 40-40 160 35 165s25-155 25-155c20-75 100-130 100-130 25 10 165 25 145-50s-175-5-175-5c-95-5-170-35-170-35C350 20 280-25 255 20c-35 55 105 125 105 125 75 120 85 185 85 190m35-40c-20-65-60-135-60-135 45 15 135 35 135 35-60 50-75 95-75 100m155-110s85-35 90-20-65 25-90 20m-280-75c-40-15-75-80-65-80 5 0 40 30 65 80m125 275c0 5 20 85 0 85-15 5 0-80 0-85z" horiz-adv-x="1000"/><glyph glyph-name="file-image-outline" unicode="ﻍ" d="M600 850l300-300V-50c0-55-45-100-100-100H200c-55 0-100 45-100 100v800c0 55 45 100 100 100h400M800-50v550H550v250H200V-50h600m-50 350V0H250l250 250 100-100M400 425c0-40-35-75-75-75s-75 35-75 75 35 75 75 75 75-35 75-75z" horiz-adv-x="1000"/><glyph glyph-name="reply-outline" unicode="］" d="M325 545V445l95-5c135-5 245-60 335-165-105 35-215 40-335 40H320V180L135 365l190 180m90 205c-5 0-15 0-25-5L5 385c-5-5-5-10-5-20 0-5 0-10 5-15L390-20c5-5 15-5 20-5 5 5 10 10 10 25v220c235 0 415-25 540-255 5-5 10-10 15-10h5c10 5 15 15 10 25 5 15-15 150-105 290-110 175-270 270-465 280v185c5 10 0 15-5 15z" horiz-adv-x="1000"/><glyph glyph-name="draw" unicode="ｦ" d="M390-95c90 35 70 130 25 195-45 60-105 105-170 145-45 30-85 65-120 105-10 15-40 45-10 55 30 5 80-25 105-35 45-20 90-40 135-70l50 85c-80 50-180 95-270 110-55 10-110 0-130-60-15-50 10-100 40-140 70-90 175-135 255-215 15-15 40-35 45-60 10-15 10-20-15-20-60 0-140 50-190 80L90-5c75-45 205-120 300-90m550 785c10 10 10 30 0 40l-65 65c-10 5-25 5-35-5l-50-50 105-105M450 405V300h105l305 310-105 105-305-310z" horiz-adv-x="1000"/><glyph glyph-name="file-code-outline" unicode="󰁍" d="M600 850H200c-55 0-100-45-100-100V-50c0-55 45-100 100-100h600c55 0 100 45 100 100v600L600 850M800-50H200v800h350V500h250V-50M375 170L480 65 420 0 250 170l170 165 65-65-110-100m375 0L580 0l-65 65 105 105-105 105 65 65 170-170z" horiz-adv-x="1000"/><glyph glyph-name="file-excel-outline" unicode="󰁏" d="M600 850H200c-55 0-100-45-100-100V-50c0-55 45-100 100-100h600c55 0 100 45 100 100v600L600 850M800-50H200v800h350V500h250V-50M545 225L690 0h-90L500 170 400 0h-90l145 225-145 225h90l100-170 100 170h90L545 225z" horiz-adv-x="1000"/><glyph glyph-name="arrow-right" unicode="󰁔" d="M100 400V300h600L425 25l71-71 396 396-396 396-71-71 275-275H100z" horiz-adv-x="1000"/><glyph glyph-name="file-powerpoint-outline" unicode="󰁗" d="M600 850H200c-55 0-100-45-100-100V-50c0-55 45-100 100-100h600c55 0 100 45 100 100v600L600 850M800-50H200v800h350V500h250V-50M660 410c-25 25-55 40-120 40H350V0h80v165h110c65 0 90 10 120 35s40 60 40 105-10 75-40 105m-65-160c-15-15-30-25-60-25H430v160h100c30 0 50-10 65-25s20-30 20-55-5-40-20-55z" horiz-adv-x="1000"/><glyph glyph-name="file-word-outline" unicode="󰁠" d="M600 850H200c-55 0-100-45-100-100V-50c0-55 45-100 100-100h600c55 0 100 45 100 100v600L600 850M800-50H200v800h350V500h250V-50m-30 500L665 0h-70l-90 340L410 0h-65L235 450h75l70-340 90 340h65l90-340 70 340h75z" horiz-adv-x="1000"/><glyph glyph-name="dock-left" unicode="󰃕" d="M900 750H100C45 750 0 705 0 650V50C0-5 45-50 100-50h800c55 0 100 45 100 100v600c0 55-45 100-100 100m0-700H350v600h550V50z" horiz-adv-x="1000"/><glyph glyph-name="view-grid-outline" unicode="󰈄" d="M50 400h400v400H50m100-100h200V500H150m400-600h400v400H550m100-100h200V0H650M50-100h400v400H50m100-100h200V0H150m400 800V400h400v400M850 500H650v200h200V500z" horiz-adv-x="1000"/><glyph glyph-name="archive-arrow-up-outline" unicode="󰊇" d="M900-100H100v550h100V0h600v450h100v-550M50 800h900V500H50v300m100-100V600h700v100M425 100v150H300l200 200 200-200H575V100" horiz-adv-x="1000"/></font>
</defs>
</svg>
